<svg xmlns="http://www.w3.org/2000/svg" viewBox="0 0 788.51 250"><defs><style>.cls-1{fill:#f2f2f2;}.cls-2{fill:#e38c16;}</style></defs><g id="Layer_2" data-name="Layer 2"><g id="Layer_1-2" data-name="Layer 1"><path class="cls-1" d="M100,128.17,18.38,190.28a125,125,0,0,1,198-150.62L110.45,120.23Z"/><path class="cls-1" d="M117.9,129.73,22.72,196.87q-1.83-2.58-3.52-5.27l84.21-62.67,11-8.15h0l104.79-78a121.94,121.94,0,0,1,7.86,10l-97.4,68.71Z"/><path class="cls-1" d="M77.88,173.22,29.69,205.89q-3.12-3.67-6-7.6l99.16-68.12,11.75-8.07,95.11-65.34q3.06,4.7,5.71,9.67l-84.55,57.3h0l-11.62,7.88L92.64,163.22l-14.75,10Z"/><path class="cls-1" d="M250,125A125,125,0,0,1,30.32,206.62l49.22-32.85,16.35-10.91h0l47-31.35,10.73-7.16,83.13-55.47A124.53,124.53,0,0,1,250,125Z"/><path class="cls-2" d="M178.21,138.35a4.25,4.25,0,0,1-.82-2.29c-2.2-1.18-4.44-2.35-6.73-3.49a14.93,14.93,0,0,1-5.59-4.76,98,98,0,0,0-11.47-3.46l-10.73,7.16a17.07,17.07,0,0,1,2.53.36c1.18.26,2.39.55,3.61.89s2.42.72,3.56,1.14a32.15,32.15,0,0,1,3,1.27,6.05,6.05,0,0,1,6.35,1,8.08,8.08,0,0,1,2.16,3.61,3.57,3.57,0,0,1-1.91,3.3,28.1,28.1,0,0,0-3.55,2.16,24.28,24.28,0,0,0-2.92,2.29,5.08,5.08,0,0,1-3.56,1.27h-.76a16.24,16.24,0,0,1-4.63,2.28q-2.47.77-4.89,1.78a8.2,8.2,0,0,0-3.81.57c-1,.47-2.15,1-3.42,1.72a58.15,58.15,0,0,0-8.83,2,30.52,30.52,0,0,1-9,1.34h-1.27a3.83,3.83,0,0,1-1-.13,26,26,0,0,1-5.84,2.41,53.42,53.42,0,0,1-6.54,1.4c-2.09.32-4.18.57-6.27.77h0L79.54,173.77a20.41,20.41,0,0,0,5.68.76,21.75,21.75,0,0,0,11.17-3.05,2.21,2.21,0,0,0,2,1,7.12,7.12,0,0,0,2.67-.51,7.09,7.09,0,0,1,2.67-.51h.76a1.37,1.37,0,0,0,.57.83c.29.21.44.4.44.57a13.82,13.82,0,0,1-.76,4.51q-.76,2.22-1.59,4.57c-.55,1.56-1.07,3.13-1.58,4.69a15.28,15.28,0,0,0-.76,4.76,3.46,3.46,0,0,0,.12,1,14.84,14.84,0,0,0-2.85,4.19,11.17,11.17,0,0,0-1.21,4.82,4.9,4.9,0,0,0,.38,1.91,7.3,7.3,0,0,0-2.92,3.43,27.64,27.64,0,0,0-1.65,4.95q-.63,2.66-1.08,5.33a23,23,0,0,1-1.2,4.57,18.07,18.07,0,0,0,2.28,2.6A14.3,14.3,0,0,1,95,227.09a1.18,1.18,0,0,1,.88-.38,3.86,3.86,0,0,1,1.78.38,5.72,5.72,0,0,0,1.78.51,21.81,21.81,0,0,0,2.67-3.94,9.64,9.64,0,0,0,1.14-4.57,6.9,6.9,0,0,0-.13-1.52,90.75,90.75,0,0,1,4.57-11.18L113,195.48q2.67-5.46,5-11a83.29,83.29,0,0,0,3.87-11.55,5.92,5.92,0,0,0,1.65-2.41,9.11,9.11,0,0,1,1.4-2.54,21.1,21.1,0,0,1,5.27-1.59l5.52-.89c1.86-.3,3.68-.63,5.46-1a19.09,19.09,0,0,0,5.2-2,2.16,2.16,0,0,1,1.08.25,2.16,2.16,0,0,0,1.08.26,1,1,0,0,0,.64-.13l7.74-3.94,6.6-3.3a49.3,49.3,0,0,0,6.28-3.74,30.6,30.6,0,0,0,5.4-4.83,22.67,22.67,0,0,0,3.94-6.41A5.05,5.05,0,0,0,178.21,138.35ZM136.38,122.1h-1.74l-11.75,8.07c1.06.12,2.11.27,3.15.43a82.63,82.63,0,0,0,13,1h.23l11.62-7.88A68.74,68.74,0,0,0,136.38,122.1Zm27.11-57.58a10,10,0,0,0-2.92-1.84,17.25,17.25,0,0,0-3.37-1,19.62,19.62,0,0,0-3.42-.32,25.44,25.44,0,0,0-6.61,1,12.73,12.73,0,0,0-5.84,3.23,2.74,2.74,0,0,0-1.77-.5,4.53,4.53,0,0,0-2.61.82,4.51,4.51,0,0,1-2.6.83,4.1,4.1,0,0,1-1.14-.26,66.11,66.11,0,0,1,1.9-10.75q1.39-5.28,3-10.5t3-10.51A70.92,70.92,0,0,0,143.24,24a5.41,5.41,0,0,1-1.78-2.49,5.16,5.16,0,0,0-1.9-2.48,11.08,11.08,0,0,1-1.34.19,14.92,14.92,0,0,1-1.58.07h-3.18a4.7,4.7,0,0,0-3,1.14,28.72,28.72,0,0,0-.32,3.43c0,1.18-.11,2.34-.19,3.49a25.21,25.21,0,0,1-.51,3.42A13.53,13.53,0,0,1,128.26,34a44.32,44.32,0,0,1-1.46,7.75c-.72,2.54-1.46,5-2.22,7.55s-1.42,5-2,7.55a36.5,36.5,0,0,0-.83,7.75v1.52a8.59,8.59,0,0,0,.13,1.52,2.38,2.38,0,0,0-1.14,1.27,4.82,4.82,0,0,0-.26,1.53,7.27,7.27,0,0,0,.38,2.28,160.59,160.59,0,0,0-19.42,10.67q-9.27,6-18.92,11.55a7.17,7.17,0,0,1-5.84,4.19A4.93,4.93,0,0,1,75.13,102c-.81.68-1.63,1.4-2.48,2.16a18.7,18.7,0,0,0-1,6,17.3,17.3,0,0,0,10.79,16.13,11.61,11.61,0,0,0,1.9.63,8.54,8.54,0,0,0,1.91.38.69.69,0,0,0,.69-.38,4.24,4.24,0,0,0,.32-.82,2.31,2.31,0,0,1,.38-.77.87.87,0,0,1,.89-.19,12.13,12.13,0,0,0,4.06,1.65c1.53.34,3.09.64,4.7.89.92.15,1.84.31,2.74.49l10.43-7.94c-.29,0-.57-.1-.85-.16a4.45,4.45,0,0,1-1.91-.89,3.71,3.71,0,0,1-1.4.25H105a17.35,17.35,0,0,1-4.45-.57,16.85,16.85,0,0,0-4.31-.57h-.39a14.16,14.16,0,0,0-3.11-2.16c-1.14-.59-2.22-1.21-3.23-1.84A9.2,9.2,0,0,1,87,112a6.56,6.56,0,0,1-1.14-3.74c.84-.85,1.71-1.65,2.6-2.41a14.86,14.86,0,0,0,2.35-2.54,35.53,35.53,0,0,1,3.87-2.48c1.31-.71,2.62-1.46,3.93-2.22s2.58-1.56,3.81-2.41a21,21,0,0,0,3.49-3,14.23,14.23,0,0,0,5.46-1.77,20.14,20.14,0,0,0,4.57-3.69A31.35,31.35,0,0,0,122.29,86q3-1.14,6.09-2.47t6.1-2.54A25,25,0,0,1,141,79.44c.43-.25,1-.61,1.72-1.07a3.72,3.72,0,0,1,2-.69,25,25,0,0,1,5.65.63c1.82.42,3.71.79,5.65,1.13a16.77,16.77,0,0,1,3.49-2.64l3.75-2.14a4.87,4.87,0,0,0-.06-.76,3.25,3.25,0,0,1-.07-.63,3.56,3.56,0,0,1,.38-1.7,14.7,14.7,0,0,1,.83-1.32c.29-.42.57-.83.82-1.25a4,4,0,0,0,.51-1.64A8.76,8.76,0,0,0,163.49,64.52Zm-34.34,57.07a4.81,4.81,0,0,1-1.53.25,18.39,18.39,0,0,1-4.12-.44,18.54,18.54,0,0,0-4.13-.44,7.22,7.22,0,0,0-2.92.5,7.57,7.57,0,0,0-2.08-.68h0l-11,8.15a16.78,16.78,0,0,1,3,1.17c1-.17,2.07-.3,3.18-.39s2.2-.12,3.3-.12c1.68,0,3.35,0,5,.14l11.72-8.27A4.77,4.77,0,0,0,129.15,121.59ZM89,163.74a11.07,11.07,0,0,0-3.43-.64,18,18,0,0,0-5.46.89,41.09,41.09,0,0,0-5.2,2,48.84,48.84,0,0,1,.38,6,17.21,17.21,0,0,0,2.56,1.23h0l14.75-10C91.4,163.37,90.2,163.54,89,163.74Z"/><path class="cls-2" d="M459.19,59.28a25.79,25.79,0,0,1-1.1,7.69,38.28,38.28,0,0,1-2.82,6.73q-1.72,3.22-3.7,6.38t-3.73,6.66a.76.76,0,0,0-.63.22,1.69,1.69,0,0,0-.29.55,2.16,2.16,0,0,1-.29.59.73.73,0,0,1-.63.25,14.78,14.78,0,0,1-1.68,3q-1,1.42-2.16,2.79c-.76.9-1.49,1.82-2.2,2.74a19.12,19.12,0,0,0-1.87,3h-.73a60.64,60.64,0,0,1-8.9,10.26,69.05,69.05,0,0,1-10.8,8.13,1.9,1.9,0,0,1-.44.73.78.78,0,0,0-.15.81,4.36,4.36,0,0,0-1.35,1.13c-.37.47-.72.94-1.06,1.43s-.7,1-1.07,1.43a3.46,3.46,0,0,1-1.42,1.06c-.74-.15-1.43-.27-2.09-.37s-1.33-.17-2-.22c-.29,0-.58,0-.87,0a3,3,0,0,1-2.16-.66,2.35,2.35,0,0,0-1.58-.47,3.37,3.37,0,0,0-.8.07c-.4-.69-.85-1.38-1.36-2.09a3.88,3.88,0,0,1-.77-2.31,5.73,5.73,0,0,1,.26-1.75,5.58,5.58,0,0,0,.25-1.69,9.72,9.72,0,0,0-.62-3.44,10,10,0,0,1-.62-3.44,4.35,4.35,0,0,1,.15-1.14,4.66,4.66,0,0,0,.14-1.13,1.55,1.55,0,0,0-.58-1.18,2.1,2.1,0,0,1,.29-.73,1.48,1.48,0,0,0,.22-.8,3.59,3.59,0,0,0,.07-1.28A12,12,0,0,1,400,101c0-1,.05-2,.14-3.07a13,13,0,0,1,.66-3,3.74,3.74,0,0,0-.22-.8l-.29-.73A14.67,14.67,0,0,0,401,90c.1-1.26.15-2.53.15-3.8V82.27a27.25,27.25,0,0,1,.22-3.59c.09-.48.2-1,.33-1.42a5.47,5.47,0,0,0,.18-1.36,2.45,2.45,0,0,0-.22-1.06,4.21,4.21,0,0,0-.59-.92.73.73,0,0,0,.59-.62,5.46,5.46,0,0,0,.07-.84,8.26,8.26,0,0,0-.36-2.27,15.27,15.27,0,0,0,.36-2.53c.05-.85.08-1.69.08-2.53a68.64,68.64,0,0,0-.55-8.64q-.56-4.25-.7-8.57h-.22a1.33,1.33,0,0,0-.8.22c-.2.15-.4.31-.59.48a3.3,3.3,0,0,1-.66.44,1.48,1.48,0,0,1-.88.11,9.38,9.38,0,0,1-2,1.76A20.29,20.29,0,0,1,393,52.24a27.77,27.77,0,0,1-2.57,1.07c-.88.31-1.7.62-2.49.91A4,4,0,0,1,386.17,53c-.49-.56-1-1.13-1.4-1.72a2.87,2.87,0,0,1-.07-.58v-.59a4.54,4.54,0,0,1,.95-3.11c.64-.71,1.32-1.55,2.05-2.53h.37a1.21,1.21,0,0,1,.62.15,1.21,1.21,0,0,0,.62.14h.22A19.73,19.73,0,0,1,394,42,27,27,0,0,1,399,40.31a9,9,0,0,1,2.24-1.69,5.72,5.72,0,0,1,2.67-.58l.84,0a7.89,7.89,0,0,1,.84.11q3-1.4,5.68-2.38a17.79,17.79,0,0,1,6.19-1,.75.75,0,0,0,.62-.22,3.28,3.28,0,0,0,.33-.47q.15-.25.3-.48a.54.54,0,0,1,.51-.22,1.83,1.83,0,0,0,.07.44.34.34,0,0,0,.37.29,1,1,0,0,0,.55-.18,1,1,0,0,1,.62-.18q.36,0,.51.51c.54-.34,1.05-.66,1.54-.95a5.57,5.57,0,0,1,1.61-.66c.73.14,1.48.27,2.24.36a17.42,17.42,0,0,0,2.3.15,13,13,0,0,0,1.76-.11,2.75,2.75,0,0,0,1.54-.69c.19,0,.29.05.29.29a3.28,3.28,0,0,0,1.39.77,8.4,8.4,0,0,0,1.54.22c.54,0,1.07.06,1.61.11a3.16,3.16,0,0,1,1.47.51,2.24,2.24,0,0,1,.95.48,3,3,0,0,0,.95.55,5.71,5.71,0,0,0,1.21.21,2.72,2.72,0,0,1,1.13.3.57.57,0,0,1,.41.47.72.72,0,0,0,.4.55,3.36,3.36,0,0,0,1.76.63,3.79,3.79,0,0,1,1.9.69,2.62,2.62,0,0,0,1.61,2.13c.88.34,1.74.68,2.57,1a1,1,0,0,1,.29,1,10.48,10.48,0,0,1,1.58,1.46,19,19,0,0,1,1.31,1.72c.42.61.82,1.21,1.21,1.8A9.18,9.18,0,0,0,457.28,49a1.4,1.4,0,0,0,.19,1,1.47,1.47,0,0,1,.11,1.1,8.6,8.6,0,0,1,1.61,2.13,2.59,2.59,0,0,0-.44,1.46,5,5,0,0,0,.22,1.47,5.27,5.27,0,0,1,.22,1.46Zm-6.81-1.62a11,11,0,0,0-.81-4.13c-.54-1.35-1-2.68-1.39-4a1.13,1.13,0,0,1-1.21-.69,2.78,2.78,0,0,0-.91-1.21,2.34,2.34,0,0,1-1.76-2.12c-1-.39-2-.83-3-1.32a7,7,0,0,1-2.56-2l-5.31-1.65a18.09,18.09,0,0,0-5.46-.84c-.34,0-.64,0-.91,0a7,7,0,0,1-.77,0,3.88,3.88,0,0,0-1.25.22,3.78,3.78,0,0,1-1.24.22,2.39,2.39,0,0,1-1.32-.44A13.4,13.4,0,0,1,421.29,41c-1.15.3-2.31.55-3.48.77s-2.32.49-3.45.81a9.46,9.46,0,0,0-3,1.43,5.81,5.81,0,0,0-.84-.22,4.29,4.29,0,0,0-.77-.08,1.6,1.6,0,0,0-1,.3.55.55,0,0,0-.25.36c0,.15-.05.31-.08.48a.62.62,0,0,1-.18.4c-.1.1-.29.13-.58.08a6.5,6.5,0,0,1,0,.66,4.28,4.28,0,0,0,0,.65,17.79,17.79,0,0,0,.41,3.78,18.36,18.36,0,0,1,.4,3.77,12.52,12.52,0,0,1-.08,1.35,5.68,5.68,0,0,1-.29,1.36,5.16,5.16,0,0,1,.4,1.9c0,.69,0,1.37,0,2.05s0,1.36.07,2A4.89,4.89,0,0,0,409,64.7a16.46,16.46,0,0,0-.3,2.19c-.05.73-.07,1.47-.07,2.2a49.49,49.49,0,0,0,.26,5,49.7,49.7,0,0,1,.25,5.06c0,.44,0,.9,0,1.39s-.07,1-.11,1.46a7.54,7.54,0,0,1-.52,1.83,5,5,0,0,0-.36,1.91,12.46,12.46,0,0,0,.07,1.35,13.43,13.43,0,0,1,.07,1.43,4.68,4.68,0,0,1,0,.55,3.24,3.24,0,0,0,0,.55c-.24,1.71-.44,3.44-.58,5.2s-.22,3.49-.22,5.2,0,3.21.14,4.8.25,3.18.44,4.8a2.36,2.36,0,0,0-.29,1.17,4.83,4.83,0,0,0,.51,2.09,2.65,2.65,0,0,0,1.54,1.42,19.13,19.13,0,0,0,4.36-2.3l4.06-2.9c.34-.24.86-.57,1.54-1a14.85,14.85,0,0,0,1.39-.92,3.63,3.63,0,0,0,.62-.62,9.23,9.23,0,0,1,.63-.7l3.22-3.44c1.85-1.91,3.7-3.83,5.53-5.79a59.72,59.72,0,0,0,5.09-6.22c.44-.69.88-1.36,1.32-2s.85-1.35,1.24-2.08a2.55,2.55,0,0,0,.44-.85,2.07,2.07,0,0,1,.52-.84,4.75,4.75,0,0,1,.54-.59,3.67,3.67,0,0,0,.55-.58c.39-.44.77-.89,1.14-1.36s.74-1,1.13-1.5q1.62-2.34,3-4.72c.92-1.59,1.95-3.16,3.07-4.73a12.44,12.44,0,0,1,.59-2.74c.29-.86.59-1.69.88-2.49a20,20,0,0,0,.73-2.53,9.6,9.6,0,0,0,.15-2.93,3.94,3.94,0,0,1,.62-.73,1.15,1.15,0,0,0,.26-.88Z"/><path class="cls-2" d="M506.14,63.82v.29a.68.68,0,0,0-.52.73,7.51,7.51,0,0,1-1.68.55,8.15,8.15,0,0,0-1.69.55c-.53,0-1.08-.08-1.64-.11s-1.11,0-1.65,0c-1.47,0-2.93,0-4.4.15a32.16,32.16,0,0,1-4.39,0,9.78,9.78,0,0,1-2.23.92,8.82,8.82,0,0,1-2.31.33,5.06,5.06,0,0,1-1.54-.22,22,22,0,0,1-3.84,1.46c-1.4.39-2.8.77-4.22,1.14s-2.77.78-4.06,1.24a11,11,0,0,0-3.41,1.94c-.1.69-.17,1.36-.22,2s-.07,1.3-.07,1.94a16,16,0,0,0,.11,1.9,6.42,6.42,0,0,0,.48,1.76,3.66,3.66,0,0,0,.84.22,5.46,5.46,0,0,0,.84.07,2.31,2.31,0,0,0,.73-.11.76.76,0,0,0,.52-.47A12.37,12.37,0,0,1,474,80l2.2,0c.73,0,1.45,0,2.16-.07a10,10,0,0,0,2.09-.37,13.49,13.49,0,0,1,2.31-.36l2.23-.15c.73,0,1.49-.13,2.27-.26a8.87,8.87,0,0,0,2.42-.76,5.42,5.42,0,0,0,1.94.36,12.48,12.48,0,0,1,1.94.15,3.79,3.79,0,0,1,.84.8,1.69,1.69,0,0,1,.33,1,3.5,3.5,0,0,1-.73,2,14,14,0,0,0-1.17,1.9H492a12.16,12.16,0,0,0-3.41.48c-1.09.32-2.19.69-3.29,1.1s-2.2.78-3.3,1.1a12.09,12.09,0,0,1-3.4.47q-.3,0-.33.33a.82.82,0,0,1-.19.48,5.94,5.94,0,0,0-1.09-.07,14.15,14.15,0,0,0-3.23.36,13.18,13.18,0,0,1-3.15.37,8.77,8.77,0,0,1-.88,0,8.62,8.62,0,0,1-.87-.11,1.75,1.75,0,0,1-1,.77,3.07,3.07,0,0,0-1.09.62,5.59,5.59,0,0,0-.26,1.61c0,.64-.05,1.29-.07,1.95a15,15,0,0,1-.19,1.86,2.9,2.9,0,0,1-.58,1.4c0,.24.24.33.58.25s.52.09.52.48a6.94,6.94,0,0,1-.15,1.39,7.31,7.31,0,0,0-.15,1.46,15.48,15.48,0,0,0,.33,3,11.71,11.71,0,0,0,1,3,6.6,6.6,0,0,0,1.86,2.31,4.64,4.64,0,0,0,2.93.92,5.58,5.58,0,0,0,2.2-.44,3.78,3.78,0,0,0,1.69-1.47l.36-.07a1.93,1.93,0,0,1,.55.07,2,2,0,0,0,.55.07,2.11,2.11,0,0,0,1.14-.54q.69-.56,1.53-1.29c.57-.48,1.14-1,1.73-1.42a5.75,5.75,0,0,1,1.68-1c.34-.69.67-1.37,1-2a3.69,3.69,0,0,1,1.43-1.62V98a12,12,0,0,1,1.57-1.46,4.16,4.16,0,0,0,1.28-1.69,4.63,4.63,0,0,0,.7.22,3.14,3.14,0,0,0,.7.07,4.06,4.06,0,0,0,.76-.07,3.81,3.81,0,0,0,.77-.22,6.65,6.65,0,0,1,.92,1.8,9.78,9.78,0,0,0,.84,1.86c-.44.88-.95,1.93-1.54,3.15s-1.22,2.44-1.9,3.66-1.41,2.39-2.16,3.48a11.75,11.75,0,0,1-2.24,2.53,2.85,2.85,0,0,1-.95.51c-.54.39-1,.77-1.46,1.14a8.94,8.94,0,0,0-1.25,1.28,20.86,20.86,0,0,0-4.06,1.76c-1.3.73-2.58,1.44-3.85,2.12a8.12,8.12,0,0,0-1.9-.22,14.85,14.85,0,0,0-1.76.11,14.19,14.19,0,0,1-1.9.11,1.4,1.4,0,0,0-.85-.47c-.36-.08-.5-.33-.4-.77a7,7,0,0,1-4-1.36,10.93,10.93,0,0,1-2.6-3,18,18,0,0,1-1.72-3.81c-.44-1.37-.9-2.69-1.39-4v-.22a.4.4,0,0,1,.29-.44.39.39,0,0,0,.3-.44.31.31,0,0,0-.08-.22c-.14-.53-.27-1-.36-1.39a5.63,5.63,0,0,1-.15-1.39,17.69,17.69,0,0,1,.15-2.31,19.33,19.33,0,0,0,.14-2.3,6.34,6.34,0,0,0-.29-2.05,3,3,0,0,0,.48-1,8,8,0,0,0,.25-1.29c.05-.43.09-.87.11-1.31a6.51,6.51,0,0,1,.18-1.18l-.51-1.42a4.75,4.75,0,0,1-.22-1.5v-.52a17.29,17.29,0,0,0,1.25-2.56c.34-.88.7-1.78,1.1-2.71v-.22c0-1.42-.05-2.83-.15-4.25s-.15-2.83-.15-4.25V70.48a12.24,12.24,0,0,1,.08-1.39,2,2,0,0,0,.88-.81,1.94,1.94,0,0,1,.87-.8h2.42l.44-.73a2.31,2.31,0,0,0,.29-.81,7.85,7.85,0,0,0,1.58-.62c.51-.27,1-.55,1.43-.84l1.86-1.07a14.34,14.34,0,0,1,1.69-.8,13.37,13.37,0,0,1,1.79-.55,20.47,20.47,0,0,1,2.2-.37,1,1,0,0,0,.77-.22,4.15,4.15,0,0,1,.55-.51c.58.1,1.17.18,1.76.26a14.68,14.68,0,0,0,1.75.11,8.28,8.28,0,0,0,3.3-.66c1.47,0,2.92,0,4.36-.08s2.89-.07,4.36-.07c1.27,0,2.53,0,3.8.15a32.67,32.67,0,0,1,3.74.51,4.52,4.52,0,0,1,1.46-.22,9.31,9.31,0,0,1,1.8.18,4.7,4.7,0,0,0,1.79,0,3.2,3.2,0,0,0,.41,1.36A2.41,2.41,0,0,1,506.14,63.82Z"/><path class="cls-2" d="M557.55,58.76a2.83,2.83,0,0,1-.29,1.25l-.51,1.1c-.15.34-.3.71-.44,1.1a3.06,3.06,0,0,0-.15,1.39c-.68.78-1.37,1.53-2,2.27a13.8,13.8,0,0,0-1.83,2.49,1.38,1.38,0,0,0-1.21.36,2.94,2.94,0,0,0-.62,1.18,7.42,7.42,0,0,0-2.71,1.57,13.91,13.91,0,0,0-2,2.31,38.12,38.12,0,0,0-7.25,4,34.82,34.82,0,0,0-6.16,5.5,11.33,11.33,0,0,1,2.6.29c.86.19,1.71.4,2.57.62s1.69.42,2.52.59a8.16,8.16,0,0,0,2.57.11,8.82,8.82,0,0,0,2.16,1.46c.8.39,1.61.76,2.42,1.1a21.28,21.28,0,0,1,2.34,1.17,8.52,8.52,0,0,1,2,1.61,1,1,0,0,1,0,.26.68.68,0,0,0,0,.26,2.4,2.4,0,0,0,.29,1.13A2.37,2.37,0,0,1,552,93a8.62,8.62,0,0,0-.66,1.24,5.58,5.58,0,0,1-.7,1.17,4.2,4.2,0,0,1-.91.88,2.76,2.76,0,0,1-1.4.44,3.89,3.89,0,0,1-1.17,1.94,10.57,10.57,0,0,1-1.79,1.25c-.66.36-1.31.73-1.94,1.1a5,5,0,0,0-1.61,1.43,24.24,24.24,0,0,0-4.29,1.42,11.72,11.72,0,0,0-3.7,2.6l-2.23.33a13.2,13.2,0,0,1-2.24.19,4.46,4.46,0,0,1-2.49-.63,2.84,2.84,0,0,1-1.09-2.3,2.25,2.25,0,0,1,.65-.88l1-.73a7.84,7.84,0,0,0,.91-.77,2.65,2.65,0,0,0,.62-1l.37,0a2.18,2.18,0,0,0,.44,0,2.29,2.29,0,0,0,1.39-.37c.34-.24.67-.48,1-.73a7.33,7.33,0,0,1,1.06-.66,3.1,3.1,0,0,1,1.54-.22,3.18,3.18,0,0,1,1.54-1.42c.68-.32,1.39-.62,2.12-.88a14.21,14.21,0,0,0,2.09-1,2.85,2.85,0,0,0,1.36-1.64,2.72,2.72,0,0,0-1-.92,6.62,6.62,0,0,0-1.32-.55l-1.39-.44a7.09,7.09,0,0,1-1.17-.51,5.72,5.72,0,0,1-1.54.22,15.73,15.73,0,0,1-3-.29,15,15,0,0,0-3-.3,7.29,7.29,0,0,0-2.42.37,5.37,5.37,0,0,1-.77-.22l-.77-.29a9.51,9.51,0,0,1-3.51.66H517.2a4.7,4.7,0,0,0-1.18.14,6.53,6.53,0,0,0-.8,3.15,7.79,7.79,0,0,0,.36,2.38c.25.76.49,1.55.74,2.38a18.09,18.09,0,0,1,2.71,3.12,6.7,6.7,0,0,1,1.24,3.91,3.46,3.46,0,0,1-.07.81,3.29,3.29,0,0,0-1.91-.51,6.2,6.2,0,0,0-1.94.29,11.46,11.46,0,0,1-1.94.44l-1.68-.77a10,10,0,0,1-1.69-1c-.39-.83-.78-1.62-1.17-2.38a11.24,11.24,0,0,0-1.46-2.16v-.29A31.5,31.5,0,0,0,508,96a31.37,31.37,0,0,1-.4-5.05c0-.78,0-1.57.11-2.38a5.35,5.35,0,0,1,.7-2.23,29.07,29.07,0,0,1-.22-3.67,64.73,64.73,0,0,1,.44-7.61,68.44,68.44,0,0,0,.44-7.77c0-.53,0-1.07,0-1.61s-.06-1.07-.11-1.61h-.29a6.48,6.48,0,0,0-1.83.26c-.59.17-1.18.35-1.76.55s-1.2.37-1.83.54a7,7,0,0,1-1.91.26,5.62,5.62,0,0,0-.95.59,8.06,8.06,0,0,1-.73.51,4,4,0,0,1-.84.37,3,3,0,0,1-1.14.07c-.54.34-1,.6-1.28.77a9.61,9.61,0,0,1-1.36.55,1.86,1.86,0,0,0-.73.44l-.58.51c-.2.15-.42.29-.66.44a1.82,1.82,0,0,1-1,.22,2.56,2.56,0,0,1-.73-.07,4.09,4.09,0,0,1-.77-.88q-.33-.51-.66-1a6.2,6.2,0,0,0-.73-.88,2.65,2.65,0,0,0-1-.62.89.89,0,0,0,.26-.63,3.64,3.64,0,0,1,0-.62.47.47,0,0,1,.07-.29,4,4,0,0,1,1.32-2.09,8.37,8.37,0,0,1,2.13-1.24c.78-.32,1.57-.6,2.38-.85a13.11,13.11,0,0,0,2.23-.88,18.51,18.51,0,0,0,5.2-.54,29.4,29.4,0,0,0,4.84-1.8,1.87,1.87,0,0,0,.87.22,3.71,3.71,0,0,0,.74-.07l.73-.15a4.32,4.32,0,0,1,1.9-1c.69-.15,1.37-.27,2.05-.37s1.35-.2,2-.33a3.69,3.69,0,0,0,1.69-.77h.29a11.42,11.42,0,0,0,3.55-.58,8.7,8.7,0,0,1,3.48-.44,9,9,0,0,1,2.71-1,17.24,17.24,0,0,1,2.86-.22,1.76,1.76,0,0,0,.88-.33,2.23,2.23,0,0,1,1.24-.33,1,1,0,0,1,.26,0,.66.66,0,0,0,.25,0,1,1,0,0,0,.92-.44c.17-.3.62-.44,1.35-.44a9.59,9.59,0,0,1,1,0c.29,0,.58,0,.88,0a.6.6,0,0,0,.65-.4.53.53,0,0,1,.66-.33.79.79,0,0,0,.74.26c.34,0,.61,0,.8,0,.34,0,.54.1.59.29a6.83,6.83,0,0,1,2.6-.95,17.61,17.61,0,0,1,2.74-.22c.35,0,.69,0,1,0s.71.06,1.1.11a2.65,2.65,0,0,1,1.54-.44,5,5,0,0,1,1.64.44c.76.29,1.55.63,2.39,1a21,21,0,0,1,2.27,1.25,3.58,3.58,0,0,1,1.24,1.1,1,1,0,0,1,.18.65,3,3,0,0,0,.19.88q.36.88.69,1.65A4.32,4.32,0,0,1,557.55,58.76Zm-8.13.81a2,2,0,0,0,0-.33,1.35,1.35,0,0,1,0-.33,2.34,2.34,0,0,0-1-.66,10.17,10.17,0,0,0-1.32-.37c-.46-.09-.93-.18-1.39-.25a5.86,5.86,0,0,1-1.21-.33,10.64,10.64,0,0,1-3.37.51,8.28,8.28,0,0,1-3-.51,4.41,4.41,0,0,1-1.68,1,11.69,11.69,0,0,1-2.17.55,15.72,15.72,0,0,1-2.27.22c-.75,0-1.42,0-2,0a2.59,2.59,0,0,0-1,.44,2.61,2.61,0,0,1-1.31.44,1.09,1.09,0,0,1-.81-.37,5.78,5.78,0,0,1-1.83.88,23.15,23.15,0,0,1-2.42.62l-2.52.55c-.86.2-1.58.39-2.17.59a10.73,10.73,0,0,0-1,4.14c0,1.49-.07,2.94-.07,4.35a18.94,18.94,0,0,1-.15,2.42,19.08,19.08,0,0,0-.14,2.42,10.17,10.17,0,0,0,.07,1.21,2.87,2.87,0,0,0,.44,1.21,2,2,0,0,0-.77,1.13,5.47,5.47,0,0,0-.18,1.36,7.31,7.31,0,0,0,.14,1.46c.1.44.2.86.3,1.25a18.85,18.85,0,0,0,4.28-.88,22.78,22.78,0,0,0,3.66-1.61,27.08,27.08,0,0,0,3.34-2.2l3.37-2.64a3.58,3.58,0,0,0,1.2-.44,2.33,2.33,0,0,1,1.21-.29,2.18,2.18,0,0,1,1.1-1.43A2.86,2.86,0,0,0,536,72.53a4.87,4.87,0,0,0,1.5-.62l1.21-.81a14.93,14.93,0,0,1,1.28-.77,4.15,4.15,0,0,1,1.57-.43c.83-1,1.7-2,2.6-2.93a10.6,10.6,0,0,1,3.19-2.35,6.39,6.39,0,0,1,.66-1.28c.24-.37.47-.73.69-1.1a5.71,5.71,0,0,0,.55-1.17A4.44,4.44,0,0,0,549.42,59.57Z"/><path class="cls-2" d="M621.57,63.3a5.14,5.14,0,0,1-1,1.76l-1.24,1.54a8.3,8.3,0,0,0-1,1.57,3.38,3.38,0,0,0-.26,2,2.81,2.81,0,0,1-.36,0,1.87,1.87,0,0,0-.37,0,2.64,2.64,0,0,0-1.79.55,5.16,5.16,0,0,1-1.65.92,4.55,4.55,0,0,0-.37-.84,1.07,1.07,0,0,0-.66-.55c-1.17.24-2.34.42-3.51.55s-2.35.28-3.52.47a13.52,13.52,0,0,0-1.61.4c-.54.18-1.1.33-1.68.48a2.35,2.35,0,0,1-1,.11,5,5,0,0,0-1,0c-1.17,0-2.44.13-3.81.25a8.47,8.47,0,0,0-3.66,1.14,14.26,14.26,0,0,0-1.54-.22c-.54,0-1.07-.08-1.61-.08a26.11,26.11,0,0,0-3.85.33,10.35,10.35,0,0,0-3.7,1.29,3.9,3.9,0,0,0-.76-.22,5.08,5.08,0,0,0-.92-.08.57.57,0,0,0-.22,0,.43.43,0,0,1-.22,0,2.57,2.57,0,0,0,.18,1.28,2,2,0,0,0,.92,1,5,5,0,0,0-.29,1.75,17.17,17.17,0,0,0,.18,2.49,17.62,17.62,0,0,1,.18,2.5,5.45,5.45,0,0,1-.36,2.19,15,15,0,0,1,.73,4.69,13.81,13.81,0,0,1-.11,1.72,14.5,14.5,0,0,0-.11,1.8,1.57,1.57,0,0,0,.58,1.28,1.57,1.57,0,0,1,.59,1.28,1.22,1.22,0,0,1-.15.58,10.13,10.13,0,0,0,2-.62,5.19,5.19,0,0,1,2-.4,2.92,2.92,0,0,1,1.13.22,3.51,3.51,0,0,1,1,.59c0,.24-.08.51-.11.8s0,.59,0,.88q0,.81,0,1.5c0,.47.06,1,.11,1.5a9,9,0,0,1-1.35,1.83,4.37,4.37,0,0,0-1.06,2,3.82,3.82,0,0,0-1.94.48,13.87,13.87,0,0,0-1.58,1c-.49.36-1,.7-1.46,1a2.9,2.9,0,0,1-1.62.48,2.62,2.62,0,0,1-1.53-.33,2.27,2.27,0,0,1-.66-.7l-.41-.66c-.12-.19-.37-.26-.76-.22a5.89,5.89,0,0,0-.59-1.79c-.29-.56-.6-1.11-.92-1.65l-1-1.65a6.46,6.46,0,0,1-.69-1.72,14.77,14.77,0,0,1-.37-3.95,9.89,9.89,0,0,0-.66-4c.1-.68.17-1.38.22-2.09s.07-1.4.07-2.08c0-1.37,0-2.72-.11-4.07s-.13-2.72-.18-4.14a3,3,0,0,1-.62-1.5q-.12-.84-.18-1.65l-.48-.44a1,1,0,0,1-.33-.58,4,4,0,0,0-.88-.15,3,3,0,0,0-1.72.48,2.3,2.3,0,0,1-1.28.47,3.9,3.9,0,0,1-1.1-.14,3.67,3.67,0,0,0-1-.15c-.29,0-.45.06-.47.18a.53.53,0,0,1-.33.33,3.3,3.3,0,0,1-1,.3c-.54.1-1.13.18-1.79.25s-1.3.14-1.91.19-1,.07-1.2.07a2.9,2.9,0,0,1-1.8-.48c-.41-.31-.91-.67-1.5-1.06a2.38,2.38,0,0,0,.15-.58,1.73,1.73,0,0,0-.44-1.21,1.32,1.32,0,0,1-.44-.85,1.44,1.44,0,0,1,.62-1.24,1.78,1.78,0,0,0,.7-1.39,17.21,17.21,0,0,1,3.44-1.1c1.17-.24,2.37-.44,3.59-.59s2.42-.31,3.62-.51a18.11,18.11,0,0,0,3.55-.95c.35,0,.67.08,1,.11s.65,0,1,0a20,20,0,0,0,4.36-.48,20.38,20.38,0,0,1,4.43-.48,9.2,9.2,0,0,1,1.17.08,9.62,9.62,0,0,1,1.17.22c2-.3,3.9-.61,5.83-1s3.92-.63,6-.87c1-.1,1.94-.19,2.89-.26s1.92-.18,2.89-.33a1.69,1.69,0,0,0,.77-.26.9.9,0,0,0,.26-.77,3.47,3.47,0,0,0,1.46.3,6.91,6.91,0,0,0,2.42-.44,6.69,6.69,0,0,1,2.42-.44,3.89,3.89,0,0,1,.51,0,2.18,2.18,0,0,0,.44,0,.48.48,0,0,0,.55-.47q0-.48.69-.63a8.77,8.77,0,0,1,1.47-.22l2-.18c.71-.07,1.37-.17,2-.29a3.15,3.15,0,0,0,1.36-.55l.51-.81a2.25,2.25,0,0,1,1.94,1.14,5.15,5.15,0,0,1,.7,2.3,1,1,0,0,0,.84.26c.36,0,.69,0,1,0Z"/><path class="cls-1" d="M352.18,191.23a8.44,8.44,0,0,1-.1,1.46,1.88,1.88,0,0,0-.78.54,1,1,0,0,1-1,.24,4.9,4.9,0,0,1-1,2.45,21.93,21.93,0,0,1-1.62,1.8c-.55.55-1.09,1.14-1.61,1.76a4.58,4.58,0,0,0-1,2.39,13.51,13.51,0,0,0-2.88,2.1,10.29,10.29,0,0,1-2.49,1.81,9.47,9.47,0,0,1-1.66.63,13.3,13.3,0,0,0-1.76.64q-2.83,1.26-5.81,2.63a14.61,14.61,0,0,1-6.2,1.37h-.69a2.06,2.06,0,0,1-1,.54c-.4.1-.79.18-1.18.24a8.38,8.38,0,0,0-1.17.3,1.77,1.77,0,0,0-.88.58,6.8,6.8,0,0,0-2.34-.39h-.68c-1.11.26-2.15.46-3.13.59a23.77,23.77,0,0,1-3.12.19,44.25,44.25,0,0,1-5.86-.39q-2.94-.39-5.86-.68a11.52,11.52,0,0,1-3-3.66,9.77,9.77,0,0,1-1.17-4.64,7.84,7.84,0,0,1,.78-3.47,10.58,10.58,0,0,1,2.05-2.88h.29a4.65,4.65,0,0,0,1.81-.39,4.65,4.65,0,0,1,1.81-.39,2,2,0,0,1,1.61.78,5.66,5.66,0,0,1,1,1.86,9.56,9.56,0,0,1,.44,2.19c.07.75.1,1.35.1,1.81a7.09,7.09,0,0,0,2.3.59q1.21.09,2.49.09c.84,0,1.79,0,2.83-.14a27.7,27.7,0,0,0,3.17-.49c1.08-.23,2.12-.51,3.13-.83a9.13,9.13,0,0,0,2.58-1.27,28,28,0,0,0,9.48-2.44c2.73-1.31,5.63-2.83,8.69-4.59a3.07,3.07,0,0,1,.83-1.71,2.6,2.6,0,0,0,.63-1.91,1.85,1.85,0,0,0-.05-.44,2.29,2.29,0,0,1,0-.43,35,35,0,0,0-4.06-4.3,10.78,10.78,0,0,0-5.42-2.44,2.59,2.59,0,0,0-1.27-1.32c-.58-.29-1.2-.57-1.85-.83s-1.27-.54-1.86-.83a2.6,2.6,0,0,1-1.27-1.52q-2.62-.48-5.42-1.22a10.19,10.19,0,0,1-4.73-2.68,10.22,10.22,0,0,1-3-.64c-.95-.35-1.87-.71-2.78-1.07s-1.86-.68-2.84-1a10.51,10.51,0,0,0-3-.44,2.85,2.85,0,0,0-1.08-1.07,8.73,8.73,0,0,0-1.51-.68,16.3,16.3,0,0,1-1.56-.64,2.49,2.49,0,0,1-1.13-1,.9.9,0,0,0-.58.39.78.78,0,0,1-.69.29h-.39a1.31,1.31,0,0,0-.78-.83,1.14,1.14,0,0,1-.68-1,9.62,9.62,0,0,1-3.18-.68,19.57,19.57,0,0,1-2.63-1.32q-1.23-.74-2.49-1.41a12,12,0,0,0-2.84-1.08,14.56,14.56,0,0,1-1.8-1.71,2.71,2.71,0,0,0-2.1-.93,5.49,5.49,0,0,0-1.08.2,3.07,3.07,0,0,0-1.46-2.49,21.57,21.57,0,0,0-2.73-1.32,15.78,15.78,0,0,0-2.64-4.49,31.56,31.56,0,0,0-3.61-3.61,3.09,3.09,0,0,0,.19-.88,3,3,0,0,0-.49-1.71,5.35,5.35,0,0,0-1.07-1.22,28.93,28.93,0,0,1-1.37-8.6,23.44,23.44,0,0,1,2.59-10.89,16.5,16.5,0,0,1,8.15-7.56,2.91,2.91,0,0,1,.54-1.37,2.91,2.91,0,0,0,.54-1.37,2.12,2.12,0,0,0,1.36-.39,10.58,10.58,0,0,0,.93-.83,12.24,12.24,0,0,1,.93-.83,2.51,2.51,0,0,1,1.27-.49,34.72,34.72,0,0,1,7.91-5.22q4.2-2,8.59-4.15a3.16,3.16,0,0,0,1.47-1.47h.58a2.31,2.31,0,0,0,1.52-.44,1.93,1.93,0,0,1,1.61-.24,1.87,1.87,0,0,1,1-.78c.43-.13.85-.25,1.27-.34a5.73,5.73,0,0,0,1.22-.44,1.51,1.51,0,0,0,.79-.88h.68a9.76,9.76,0,0,0,3.22-.54c1-.36,2.09-.76,3.13-1.22H315a9.17,9.17,0,0,0,3.66-.73,15,15,0,0,1,3.66-1,4.4,4.4,0,0,1,1.57-.1,11.67,11.67,0,0,0,1.56.1,7.68,7.68,0,0,0,1.17-.1,1.25,1.25,0,0,0,1-.58h.19q.58,0,.69.39a.52.52,0,0,0,.58.39,4.64,4.64,0,0,0,1.37-.2,4.92,4.92,0,0,1,1.37-.19,28.43,28.43,0,0,1,5.81.59c1.92.39,3.82.74,5.71,1.07a2.22,2.22,0,0,0,1,1.66,12.54,12.54,0,0,0,1.8.88v.39a2,2,0,0,0,.39,1.27,3.58,3.58,0,0,1-1.36,2,10.82,10.82,0,0,1-2.15,1.17,1.61,1.61,0,0,1,.58,1.08,8.22,8.22,0,0,1,.1,1.27v1.17l-.49-.1c-1,0-1.56.49-1.56,1.46a6.94,6.94,0,0,0-2.78-1,23.31,23.31,0,0,0-3-.2c-1.3,0-2.67.05-4.1.15a25.52,25.52,0,0,1-4.2,0,4.53,4.53,0,0,1-1.95,1.42,6.78,6.78,0,0,1-2.35.44,5.75,5.75,0,0,1-2.44-.54,3.22,3.22,0,0,1-1.66-1.61,2.45,2.45,0,0,0-.88-.2h-.88a14.3,14.3,0,0,0-3.07.34c-1,.23-2,.49-3.08.78l-3.08.88a13.45,13.45,0,0,1-3.07.54,3,3,0,0,1-1.57,1.08,2.92,2.92,0,0,0-1.56,1.07,12.29,12.29,0,0,0-3.71,1.32c-1.11.62-2.18,1.28-3.22,2l-3,2a15.6,15.6,0,0,1-3.32,1.66,19.21,19.21,0,0,1-2.54,2.34,11.86,11.86,0,0,1-3,1.57c-.78.26-1.22.65-1.31,1.17a3.41,3.41,0,0,1-.83,1.56,3.71,3.71,0,0,1-1.42,1,3.4,3.4,0,0,0-1.42,1.12,5,5,0,0,0-.73,1.61c-.16.62-.34,1.22-.54,1.81a15.6,15.6,0,0,1-.68,1.71,3.76,3.76,0,0,1-1.17,1.41,6.66,6.66,0,0,1,0,.78,6.21,6.21,0,0,0-.05.69,11.68,11.68,0,0,0,.34,2.78,16.36,16.36,0,0,1,.44,2.78,32.2,32.2,0,0,0,4.59,6.21,50,50,0,0,0,5.67,5.12,76.09,76.09,0,0,0,6.3,4.4c2.18,1.36,4.34,2.7,6.49,4a5.38,5.38,0,0,1,2.15.24,8.13,8.13,0,0,0,2,.44,8.75,8.75,0,0,0,2.73,1.37l3.13,1a30.37,30.37,0,0,1,3,1.12,7.1,7.1,0,0,1,2.44,1.71,7.9,7.9,0,0,1,.88.24,2.41,2.41,0,0,0,.87.15c.4,0,.62-.13.69-.39q4.39,1.67,8.59,3.66a42.65,42.65,0,0,0,8.89,3.08,22.16,22.16,0,0,0,4.1,2.73c1.5.78,3,1.58,4.49,2.4a47.42,47.42,0,0,1,4.3,2.63,17,17,0,0,1,3.61,3.37,14.73,14.73,0,0,0,.83,3.57A10.28,10.28,0,0,1,352.18,191.23Z"/><path class="cls-1" d="M410.67,169.74a1.81,1.81,0,0,1-.78,1.61,1.65,1.65,0,0,0-.78,1.42,1.91,1.91,0,0,0,.39,1,1.91,1.91,0,0,0-1.85.88c-.33.58-.65,1.23-1,2H405.4a1.36,1.36,0,0,0-.78.19,2.13,2.13,0,0,0-.54.54c-.16.23-.37.57-.63,1a15.52,15.52,0,0,0-3.57,1.22c-1.14.55-2.24,1.14-3.32,1.76s-2.16,1.23-3.27,1.85a19.9,19.9,0,0,1-3.42,1.51,6.29,6.29,0,0,1-2.54,2.35H387a1.05,1.05,0,0,1-.83-.15,1.4,1.4,0,0,0-.83-.24.54.54,0,0,0-.39.1,11.55,11.55,0,0,1-6.54,1.95,11.12,11.12,0,0,1-1.86-.15,10.94,10.94,0,0,0-1.85-.14.38.38,0,0,0-.39.19l-.2.39a4.11,4.11,0,0,1-.24.39c-.1.13-.35.2-.74.2a7.9,7.9,0,0,1-2.14-.3,5.31,5.31,0,0,0-2.25-.09,19.41,19.41,0,0,1-3.52-2.44,11.3,11.3,0,0,1-2.34-3.52,8.93,8.93,0,0,0-1.32-2.05,6.5,6.5,0,0,1-1.22-2.15c-.06-.26-.16-.73-.29-1.42s-.26-1.41-.39-2.19-.25-1.53-.34-2.25a12.7,12.7,0,0,1-.15-1.46,17.42,17.42,0,0,1,.15-2.3c.09-.75.21-1.51.34-2.29.39-2.48.66-5,.83-7.47a24.24,24.24,0,0,1,1.61-7.28,11.55,11.55,0,0,1-.2-2.05v-2.15a8.86,8.86,0,0,0-.48-3.12,5.32,5.32,0,0,0,.78-2.84,1.81,1.81,0,0,0-1.47-2v-.29a4,4,0,0,0-1.37-3.22,7,7,0,0,1,1.71-5.13,15.22,15.22,0,0,1,4.54-3,1.3,1.3,0,0,0,.3-1c.45.13.88.26,1.27.39a3.67,3.67,0,0,0,1.17.19,5.16,5.16,0,0,0,1.76-.29,1.79,1.79,0,0,0,1.51,1.41,8.41,8.41,0,0,1,2,.64v1.27a12,12,0,0,0,1.47,5.76,4.76,4.76,0,0,0-.49,1.66,14,14,0,0,0-.1,1.66c0,.78,0,1.56.1,2.34s.1,1.53.1,2.25a11.63,11.63,0,0,1-.25,2.34,4,4,0,0,1-1.12,2.06q-.11,1.26-.15,2.88c0,1.07-.1,2.16-.19,3.27a21,21,0,0,1-.54,3.22,6.58,6.58,0,0,1-1.17,2.54c-.07,1-.12,2-.15,3s-.05,2-.05,2.88c0,1.43.08,3.12.25,5.08a12.07,12.07,0,0,0,1.32,4.88,3.09,3.09,0,0,0,1.9,1.17,9.07,9.07,0,0,0,2.29.39,7.46,7.46,0,0,0,2.2-.34,2.59,2.59,0,0,0,1.61-1.22.94.94,0,0,1,.78.59,1.62,1.62,0,0,0,.69.78c3.71-1.57,7.42-3.06,11.13-4.5a102,102,0,0,0,10.94-5,3.65,3.65,0,0,0,1.66.39,9.91,9.91,0,0,0,1.95-.19,9.93,9.93,0,0,1,2-.2h.69A3.09,3.09,0,0,1,410.67,169.74Z"/><path class="cls-1" d="M482.65,187.71a4.05,4.05,0,0,1-1.22,2.2,7.32,7.32,0,0,1-2.2,1.32,10.76,10.76,0,0,1-2.59.63,21.39,21.39,0,0,1-2.39.15,9,9,0,0,1-.93,0,9,9,0,0,0-.93-.05.43.43,0,0,0-.49.49.68.68,0,0,1-.48.68,6.37,6.37,0,0,0-1-.29,5.43,5.43,0,0,0-1-.1,9.53,9.53,0,0,0-1.32.1,7.43,7.43,0,0,1-1.22.1,2.37,2.37,0,0,1-1.12-.2,2.67,2.67,0,0,1-.59-.44c-.16-.16-.32-.34-.48-.53a1.81,1.81,0,0,0-.74-.49,1.38,1.38,0,0,0-1.12-.1c-.29.13-.73-.06-1.32-.59a8.84,8.84,0,0,1-2-2.39c-.55-.94-1.09-1.94-1.61-3s-1.07-2.08-1.66-3.12a12.73,12.73,0,0,0-2-2.74h-.78a2.46,2.46,0,0,0-2.44,1.47,6.38,6.38,0,0,1-1-.73,4.87,4.87,0,0,0-1.07-.74c-1.5.46-3.07.85-4.69,1.18a25.33,25.33,0,0,1-4.89.48H438a4.61,4.61,0,0,1-1.27-.19,8.88,8.88,0,0,0-1.76.93,3.09,3.09,0,0,1-1.76.53,3.12,3.12,0,0,1-1.36-.39c-.4,0-.58.17-.54.49s-.18.49-.64.49h-.88c-.91,0-1.8,0-2.68.1s-1.78.09-2.69.09a16,16,0,0,1-3.81-.48,2.07,2.07,0,0,1-1.07.29,1.25,1.25,0,0,0-.59.63,8.33,8.33,0,0,1-.39.79,1.94,1.94,0,0,1-.53.58,1.25,1.25,0,0,1-.93.15,3,3,0,0,1-1,1.85,2.59,2.59,0,0,0-.78,2,5.53,5.53,0,0,0-1.76,1.47c-.45.58-.91,1.2-1.36,1.85s-.93,1.27-1.42,1.86a5,5,0,0,1-1.81,1.37,2.32,2.32,0,0,0-.29,1.85,10.89,10.89,0,0,1-2.64,1.56,7.24,7.24,0,0,1-2.93.69q-2.82,0-3.9-3a17.75,17.75,0,0,1,.14-2.1,16,16,0,0,1,.44-2.15,6.19,6.19,0,0,1,.88-1.85,3.42,3.42,0,0,1,1.66-1.22,1.29,1.29,0,0,0-.58-1.22,1.13,1.13,0,0,1-.49-1.22,15.79,15.79,0,0,0,4.59-3.32,37.76,37.76,0,0,0,3.56-4.35l3.27-4.64a25.87,25.87,0,0,1,3.72-4.2v-2a14.92,14.92,0,0,0,3.8-7,1.74,1.74,0,0,0,1.42-1,4.53,4.53,0,0,0,.34-1.85.61.61,0,0,0,.64-.44c.09-.3.37-.38.83-.25a31.51,31.51,0,0,1,1.95-4.29c.72-1.3,1.43-2.62,2.15-4a37.15,37.15,0,0,0,1.9-4.15,22.56,22.56,0,0,0,1.22-4.78,1.44,1.44,0,0,0,1.52-1.32c.09-.82.21-1.55.34-2.2a8.69,8.69,0,0,0,2.2-3.22c.48-1.24.92-2.52,1.31-3.86s.83-2.67,1.32-4a11.22,11.22,0,0,1,2.1-3.57V122a.61.61,0,0,0-.39-.64.59.59,0,0,1-.39-.63.26.26,0,0,0,.1-.2,3.38,3.38,0,0,0,1.76-1.61,3.44,3.44,0,0,1,1.75-1.61,9.17,9.17,0,0,0,3.62,2,30.61,30.61,0,0,0,4.1.54,5.31,5.31,0,0,1,1.42,3.27,20,20,0,0,0,.63,3.76c.52,2.09,1.09,4.12,1.71,6.11a42.91,42.91,0,0,1,1.42,6.1,12.66,12.66,0,0,0,1.07,3.51,12.92,12.92,0,0,1,1.07,3.42,12.18,12.18,0,0,1,0,3.08,5.53,5.53,0,0,0,.39,3l.69,1.56a17.66,17.66,0,0,1,.83,2.25q.35,1.17.63,2.34.78,2.92,1.42,6.3a23.12,23.12,0,0,0,2,6.1,2.74,2.74,0,0,0,1.51,1.37,9.7,9.7,0,0,0,2.3.54,16,16,0,0,0,2.49.09c.81,0,1.51,0,2.1,0h1a3.67,3.67,0,0,1,1.17.19,3.16,3.16,0,0,1,.39,1.37,2.32,2.32,0,0,1-.78,1.85,2,2,0,0,0-.78,1.57,2,2,0,0,0,.39,1.07,5.59,5.59,0,0,0-1.18-.1,12.78,12.78,0,0,0-4.39.78,8.16,8.16,0,0,0,2.1,2.79,30.21,30.21,0,0,0,2.78,2.1,3.25,3.25,0,0,1,2.05-.78,4.76,4.76,0,0,1,2.2.53,4.65,4.65,0,0,0,2.2.54,2.2,2.2,0,0,0,1.27-.29,9.1,9.1,0,0,1,1.27,1.8A6.67,6.67,0,0,0,482.65,187.71Zm-30.57-15.62a6.45,6.45,0,0,0-.63-2.4,6.87,6.87,0,0,1-.74-1.8,15.55,15.55,0,0,1-.53-2.93c-.1-1-.25-2.05-.44-3-.46-2.21-1-4.43-1.52-6.64a47.63,47.63,0,0,0-2.1-6.45,2,2,0,0,0,.39-1.07v-.29a5.88,5.88,0,0,1-1.27-2.4c-.26-.94-.5-1.88-.73-2.83a15.61,15.61,0,0,0-.88-2.63,4.6,4.6,0,0,0-1.71-2,3.1,3.1,0,0,0-.29,1.37,5.08,5.08,0,0,0,.15,1.27,5.15,5.15,0,0,1,.14,1.27,2.93,2.93,0,0,0-1.41,1.51,3.49,3.49,0,0,1-1.42,1.62,26.52,26.52,0,0,1-2.24,5.9q-1.47,2.79-3.08,5.52t-3.08,5.52a31.51,31.51,0,0,0-2.34,5.81,4.24,4.24,0,0,0-1.71,2.25,9,9,0,0,0-.44,2.73,4.5,4.5,0,0,0,2,.54c.75,0,1.48.05,2.2.05a10.42,10.42,0,0,1,2.05.19,3.42,3.42,0,0,1,1.76,1,14.13,14.13,0,0,1,2.78-.54,5.11,5.11,0,0,0,2.49-.83,12.5,12.5,0,0,0,4.2.68,13.47,13.47,0,0,0,2.3-.19,22.44,22.44,0,0,0,2.19-.49,2.92,2.92,0,0,1,1.37.64,1.88,1.88,0,0,0,1.47.34,1.52,1.52,0,0,0,.58-.83A1.71,1.71,0,0,1,452.08,172.09Z"/><path class="cls-1" d="M533.53,182.54a5.05,5.05,0,0,1-.83,2.88,4.25,4.25,0,0,0-.64,3,6.81,6.81,0,0,0-2.25,2c-.58.84-1.14,1.72-1.66,2.63a64.21,64.21,0,0,1-13.81,6.79,45.7,45.7,0,0,1-15.19,2.59,1.16,1.16,0,0,1-.88-.44q-.39-.44-.78-.93a12.24,12.24,0,0,0-.83-.93,1.41,1.41,0,0,0-1-.44,1.72,1.72,0,0,0-1.07.3,1.23,1.23,0,0,1,.05-.35,1.11,1.11,0,0,0,.05-.34,10.48,10.48,0,0,0-.29-2.39,10,10,0,0,1-.3-2.39,4.57,4.57,0,0,1,.49-2.25h1.17a13.31,13.31,0,0,0,1.91-.14,12.42,12.42,0,0,1,2-.15,3.43,3.43,0,0,1,1.95.58,32.22,32.22,0,0,0,10.21-2q4.83-1.8,9.81-3.56a5,5,0,0,0,.93-2.39,7.38,7.38,0,0,1,.73-2.49,23,23,0,0,0-5.13-3.37,10.86,10.86,0,0,0-6-.83,9.72,9.72,0,0,0-4.35-1.47c-1.53-.13-3.07-.32-4.64-.58-.39-.07-.79-.15-1.22-.25a5.66,5.66,0,0,0-1.31-.15,1.91,1.91,0,0,0-.93.25.52.52,0,0,0-.25.73,1.89,1.89,0,0,0-1.32-.93,2.54,2.54,0,0,1-1.41-.73,17.78,17.78,0,0,1-5.47-1.12q-2.34-.93-5.18-2.1a9.42,9.42,0,0,0-1.51-.44,4.83,4.83,0,0,1-1.42-.54,7.76,7.76,0,0,1-2.83-2.34,13,13,0,0,1-1.71-3.27,20.45,20.45,0,0,1-.92-3.76c-.2-1.3-.39-2.51-.59-3.62a35.8,35.8,0,0,0,1.61-3.22,23.05,23.05,0,0,0,1.22-3.51,8.32,8.32,0,0,1,1.17-.49c.39-.13.82-.3,1.27-.49a1.16,1.16,0,0,1-.09-.49,1.71,1.71,0,0,1,.34-1,1,1,0,0,0,.14-1q2.16-1.95,4.15-4.06a23.93,23.93,0,0,0,3.47-4.63,5.44,5.44,0,0,0,2.35-1.47c.58-.65,1.17-1.32,1.75-2a13.82,13.82,0,0,1,2-1.86,5.39,5.39,0,0,1,2.73-1,3.19,3.19,0,0,1,1.07-1.12c.46-.3.92-.57,1.37-.83a8.94,8.94,0,0,0,1.27-.88,3,3,0,0,0,.88-1.37,7,7,0,0,0,2.88-.59c.88-.39,1.74-.81,2.59-1.27s1.71-.88,2.59-1.27a7,7,0,0,1,2.88-.58,5.11,5.11,0,0,1,.78,0c.26,0,.55.08.88.14a3.69,3.69,0,0,1,.93,1.61,13.36,13.36,0,0,1,.34,2c.06.71.11,1.43.14,2.15a7.35,7.35,0,0,0,.35,1.95c-.59,1.11-1.22,2.21-1.91,3.32a6.94,6.94,0,0,1-2.68,2.54h-.2A1.75,1.75,0,0,1,512,138a2.5,2.5,0,0,0-1.37-.39,1.06,1.06,0,0,0-.78.3l-.49.49a2.7,2.7,0,0,1-.53.39,1.14,1.14,0,0,1-.93,0c-.91.32-1.27.88-1.07,1.66a6.31,6.31,0,0,0-3.13,1.12,17,17,0,0,0-2.34,2.05c-.72.75-1.44,1.43-2.15,2a4.24,4.24,0,0,1-2.54,1,21.86,21.86,0,0,1-4,5.17,20.42,20.42,0,0,0-4,5.08,6.39,6.39,0,0,1,.39,1.66c.07.59.16,1.21.29,1.86a10,10,0,0,0,2.1,2.05c.82.58,1.62,1.17,2.4,1.75h.29a8.8,8.8,0,0,1,3.61.74,8.6,8.6,0,0,0,3.52.73,3.31,3.31,0,0,0,1.66-.39q2.54.59,5,1c1.66.26,3.33.45,5,.58a17,17,0,0,0,2.59.2,10.11,10.11,0,0,1,2.49.29,18,18,0,0,1,2.14.73c.72.29,1.44.6,2.15.93a39.26,39.26,0,0,1,4.25,2.15,17.1,17.1,0,0,1,3.57,2.78,12,12,0,0,1,2.44,3.71A12.55,12.55,0,0,1,533.53,182.54Z"/><path class="cls-1" d="M600.22,149.24c-.26.65-.52,1.26-.78,1.85a8.71,8.71,0,0,0-.58,1.95,4.88,4.88,0,0,1-1.52.74l-1.71.48a11.23,11.23,0,0,0-1.61.59,2.48,2.48,0,0,0-1.12,1,14.35,14.35,0,0,0-.29,2.73,6.26,6.26,0,0,0,.58,2.83,9.3,9.3,0,0,0-.39,1.86c-.06.65-.09,1.27-.09,1.85a26.2,26.2,0,0,0,.78,6.4,31,31,0,0,1,.88,6.4,7.22,7.22,0,0,1-.1,1.07,6.09,6.09,0,0,0-.1,1.07,2.68,2.68,0,0,0,1.56,2.74,1.82,1.82,0,0,0-.29.88,4.4,4.4,0,0,0,.19,1.37,2.65,2.65,0,0,1,.1,1.26,14.43,14.43,0,0,0,1,1.71,4.85,4.85,0,0,1,.68,1.81,11.75,11.75,0,0,1-1.66,2.49,6.31,6.31,0,0,0-1.36,2.78,4,4,0,0,0-.88-.09,1.73,1.73,0,0,0-1.08.29,2.22,2.22,0,0,0-.63.73c-.17.29-.34.59-.54.88a1.8,1.8,0,0,1-.78.64h-.29a1.49,1.49,0,0,1-.83-.05,1.6,1.6,0,0,0-.64-.15,2.84,2.84,0,0,0-.78.2,5.54,5.54,0,0,1-1.07-2.3,11.64,11.64,0,0,1-.3-2.59,7.14,7.14,0,0,1,.39-2.44,4,4,0,0,1-1.32-2.64c-.16-1.17-.34-2.14-.53-2.93-.52-2.4-1.13-4.75-1.81-7a30.1,30.1,0,0,1-1.22-7c-.06-.91-.1-1.79-.1-2.63v-5.08c0-.85,0-1.66.1-2.44a9.54,9.54,0,0,1,.15-1.71,10.66,10.66,0,0,0,.14-1.71,3.79,3.79,0,0,0-.78-2.25,45,45,0,0,0-13.13,2.49,116,116,0,0,0-12.36,5.23,34,34,0,0,0-.48,4.39c-.07,1.43-.1,2.9-.1,4.4v4.29a36.07,36.07,0,0,0,.19,4.1,6.19,6.19,0,0,0,2.88,4.35,21,21,0,0,0,4.84,2.29,6.8,6.8,0,0,1-.59,2.49,7.57,7.57,0,0,1-1.22,1.86A18.81,18.81,0,0,1,560,192.3a22.46,22.46,0,0,0-1.76,1.76,5.29,5.29,0,0,0-1.56-.68,9.46,9.46,0,0,0-1.66-.25c-.59,0-1.17-.08-1.76-.14a8.74,8.74,0,0,1-1.76-.4l-2.14-2.92c-.72-1-1.5-2-2.35-2.93v-.88a13.57,13.57,0,0,0-1-5.08,27,27,0,0,1-1.47-5A8,8,0,0,0,545,174a15.7,15.7,0,0,0,.1-1.86c0-1.3,0-2.57-.15-3.8a20,20,0,0,1,.05-3.71h-.49a4.55,4.55,0,0,0-1.85.43c-.65.3-1.29.62-1.91,1s-1.2.68-1.75,1a3.24,3.24,0,0,1-1.42.44,2,2,0,0,1-.59-.1,2.27,2.27,0,0,0-.68-.1,2.43,2.43,0,0,0-1.17.39c-.46.26-1,.54-1.52.83s-1.12.57-1.7.83a4.35,4.35,0,0,1-1.76.39,4.26,4.26,0,0,1-2.74-1.17,4.43,4.43,0,0,1-.14-1.46c0-.46,0-1,0-1.47A5.17,5.17,0,0,0,527,164a5.47,5.47,0,0,1,1.81-2c.75-.49,1.53-.94,2.34-1.37l2.49-1.27a6.32,6.32,0,0,0,2.15-1.71h.59a5.31,5.31,0,0,0,2.49-.58,4.86,4.86,0,0,1,2.59-.49c.32-.13.55-.62.68-1.47l.39.1a5.63,5.63,0,0,0,3.81-1.46q1.06-6.06,1.76-12.21a112.66,112.66,0,0,0,.68-12.3,2.13,2.13,0,0,0-.39-1.18,6,6,0,0,1-.2-1.46v-1.47c0-.71,0-1.46.1-2.24a10.47,10.47,0,0,1,.49-2.35,3.91,3.91,0,0,1,2-.58,9.07,9.07,0,0,1,2.49.34,22,22,0,0,0,2.39.54,5.71,5.71,0,0,1,1.32,2,7.79,7.79,0,0,1,.54,2.2,18.66,18.66,0,0,1,.05,2.24c0,.75-.05,1.49-.05,2.2a17.87,17.87,0,0,0,.49,4.2,17.56,17.56,0,0,1,.49,4,.85.85,0,0,1-.35.74c-.23.16-.34.6-.34,1.32a13.69,13.69,0,0,0,.2,2.24,14.2,14.2,0,0,1,.19,2.34,11,11,0,0,1-.39,2.84c-.26,1-.49,1.92-.68,2.83,3.9-.33,7.91-.81,12-1.47a57.56,57.56,0,0,0,11.72-3.12,1.46,1.46,0,0,0,.1-.59,7.7,7.7,0,0,0-.1-1.17,7.19,7.19,0,0,1-.1-1.27,2.32,2.32,0,0,1,.78-1.85,54.1,54.1,0,0,1-.68-5.47c-.13-1.82-.2-3.65-.2-5.47v-5.57c0-1.82,0-3.64-.09-5.47a3.11,3.11,0,0,1,1.66-.48,4,4,0,0,1,2,.53,4.3,4.3,0,0,0,2.2.54,3.33,3.33,0,0,0,1.46-.29,4.93,4.93,0,0,1,1.46,2.54c.26,1,.49,2.11.69,3.22s.4,2.2.63,3.27a4.72,4.72,0,0,0,1.42,2.59l.1.29a.63.63,0,0,1-.39.59.79.79,0,0,0-.39.78v.39a27.36,27.36,0,0,1,.58,3.22c.13,1.11.25,2.23.34,3.37s.25,2.25.44,3.32a9.25,9.25,0,0,0,1.08,3,7,7,0,0,1,1.27-.1,3.82,3.82,0,0,1,3.07,1.32A23.39,23.39,0,0,1,600.22,149.24Z"/><path class="cls-1" d="M668.29,132.73v.39a.9.9,0,0,0-.68,1,10.38,10.38,0,0,1-2.25.73,10.68,10.68,0,0,0-2.24.73c-.72-.06-1.45-.11-2.2-.14s-1.48,0-2.2,0c-2,0-3.91.06-5.86.19a40.93,40.93,0,0,1-5.86,0,12.11,12.11,0,0,1-3,1.22,11.38,11.38,0,0,1-3.07.44,6.34,6.34,0,0,1-2.05-.29,29.36,29.36,0,0,1-5.13,1.95c-1.86.53-3.73,1-5.62,1.52s-3.69,1-5.42,1.66a14.6,14.6,0,0,0-4.54,2.59c-.13.91-.23,1.8-.29,2.68s-.1,1.74-.1,2.59a20.07,20.07,0,0,0,.15,2.54,9.25,9.25,0,0,0,.63,2.34,4.9,4.9,0,0,0,1.13.29,6.81,6.81,0,0,0,1.12.1,3.68,3.68,0,0,0,1-.14,1,1,0,0,0,.68-.64,18,18,0,0,1,2.93-.15c1,0,2,.05,2.93.05s1.94,0,2.88-.09a13.85,13.85,0,0,0,2.78-.49,16.85,16.85,0,0,1,3.08-.49l3-.2c1-.06,2-.17,3-.34a11.85,11.85,0,0,0,3.22-1,7.26,7.26,0,0,0,2.59.49,16.85,16.85,0,0,1,2.58.19,5.28,5.28,0,0,1,1.13,1.07,2.26,2.26,0,0,1,.44,1.37,4.74,4.74,0,0,1-1,2.74,18.62,18.62,0,0,0-1.56,2.54h-1.08a16.43,16.43,0,0,0-4.54.63c-1.46.42-2.93.91-4.39,1.46s-2.93,1.05-4.4,1.47a16.37,16.37,0,0,1-4.54.63c-.26,0-.4.15-.44.44a1,1,0,0,1-.24.64,8.66,8.66,0,0,0-1.47-.1,18.2,18.2,0,0,0-4.29.49,17.87,17.87,0,0,1-4.2.49c-.39,0-.78,0-1.17,0a11.89,11.89,0,0,1-1.18-.15,2.27,2.27,0,0,1-1.27,1,4.05,4.05,0,0,0-1.46.83,7.51,7.51,0,0,0-.34,2.15c0,.84-.07,1.71-.1,2.58a19.12,19.12,0,0,1-.24,2.49,3.71,3.71,0,0,1-.79,1.86c.07.33.33.44.79.34s.68.12.68.64a9.49,9.49,0,0,1-.2,1.85,10,10,0,0,0-.19,1.95,21.1,21.1,0,0,0,.44,4.06,16,16,0,0,0,1.37,4.05,8.74,8.74,0,0,0,2.49,3.08,6.16,6.16,0,0,0,3.9,1.22,7.37,7.37,0,0,0,2.93-.59,5,5,0,0,0,2.25-1.95l.49-.1a2.48,2.48,0,0,1,.73.1,2.86,2.86,0,0,0,.73.1,2.72,2.72,0,0,0,1.51-.74c.62-.48,1.31-1,2.06-1.71s1.51-1.28,2.29-1.9a8.11,8.11,0,0,1,2.25-1.32c.45-.91.89-1.82,1.31-2.73a4.92,4.92,0,0,1,1.91-2.15v-2.83a16.88,16.88,0,0,1,2.1-2,5.53,5.53,0,0,0,1.71-2.24,5.2,5.2,0,0,0,.93.29,3.93,3.93,0,0,0,.92.1,5.35,5.35,0,0,0,1-.1,4.8,4.8,0,0,0,1-.29,8.7,8.7,0,0,1,1.22,2.39,13.36,13.36,0,0,0,1.13,2.49q-.88,1.75-2,4.2t-2.54,4.88q-1.37,2.44-2.88,4.64a15.48,15.48,0,0,1-3,3.37,4.16,4.16,0,0,1-1.27.68c-.72.52-1.37,1-2,1.52a11.74,11.74,0,0,0-1.66,1.71,26.81,26.81,0,0,0-5.42,2.34q-2.59,1.47-5.13,2.83a10.73,10.73,0,0,0-2.54-.29,18.38,18.38,0,0,0-2.34.15,22.35,22.35,0,0,1-2.54.14,1.89,1.89,0,0,0-1.13-.63c-.48-.1-.66-.44-.53-1a9.36,9.36,0,0,1-5.37-1.8,14.56,14.56,0,0,1-3.47-4,23.67,23.67,0,0,1-2.3-5.08q-.87-2.73-1.85-5.27v-.29a.53.53,0,0,1,.39-.59c.26-.06.39-.26.39-.59a.38.38,0,0,0-.1-.29l-.49-1.85a7.77,7.77,0,0,1-.19-1.86,24.14,24.14,0,0,1,.19-3.08,22.2,22.2,0,0,0,.2-3.07,8.71,8.71,0,0,0-.39-2.74,3.72,3.72,0,0,0,.63-1.31,10,10,0,0,0,.35-1.71c.06-.59.11-1.18.14-1.76a6.37,6.37,0,0,1,.25-1.56c-.27-.72-.49-1.35-.69-1.91a6.17,6.17,0,0,1-.29-2v-.68a24.47,24.47,0,0,0,1.66-3.42c.45-1.17.94-2.38,1.46-3.62v-.29c0-1.89-.06-3.77-.19-5.66s-.2-3.78-.2-5.67v-1.85a18.32,18.32,0,0,1,.1-1.86,2.71,2.71,0,0,0,1.17-1.07,2.73,2.73,0,0,1,1.17-1.08H613l.58-1a2.92,2.92,0,0,0,.39-1.08,9.87,9.87,0,0,0,2.1-.83,19.21,19.21,0,0,0,1.91-1.12l2.49-1.42a18.19,18.19,0,0,1,2.24-1.07,16.83,16.83,0,0,1,2.4-.73,25.81,25.81,0,0,1,2.93-.49,1.33,1.33,0,0,0,1-.29,5,5,0,0,1,.73-.69c.79.13,1.57.25,2.35.34a18.38,18.38,0,0,0,2.34.15,11,11,0,0,0,4.4-.88c2,0,3.89,0,5.81-.1s3.85-.09,5.81-.09c1.69,0,3.38.06,5.08.19a40.87,40.87,0,0,1,5,.69,6,6,0,0,1,1.95-.3,12.36,12.36,0,0,1,2.39.25,6.64,6.64,0,0,0,2.39.05,4.33,4.33,0,0,0,.54,1.8A3.3,3.3,0,0,1,668.29,132.73Z"/><path class="cls-1" d="M788.51,177.85a3.68,3.68,0,0,1-1,2.24,12,12,0,0,1-1.9,1.47l-.93-.15a9,9,0,0,0-.93,0,16.52,16.52,0,0,0-5.71.79,32.06,32.06,0,0,1-5.52,1.27,6.78,6.78,0,0,1-1.81.14,6.33,6.33,0,0,0-1.71.15c-2.08.33-4.29.58-6.64.78s-4.68.44-7,.73-4.64.65-6.88,1.08a33.46,33.46,0,0,0-6.3,1.8,5.63,5.63,0,0,1-.59-.44,1,1,0,0,0-.68-.24,6,6,0,0,0-1.86.29,4.05,4.05,0,0,1-1.75.2,7,7,0,0,1-2.1.83q-1.12.24-2.25.39a16.16,16.16,0,0,0-2.2.44,5.62,5.62,0,0,0-2.05,1.07,4.79,4.79,0,0,0-1.9-.44,1.68,1.68,0,0,1-1.52-.73,14.89,14.89,0,0,1-4.73,1.37,32.41,32.41,0,0,1-5,.19,31.11,31.11,0,0,1-3.81-.49,28.38,28.38,0,0,1-4.3-1.12,24.19,24.19,0,0,1-4-1.76,7.8,7.8,0,0,1-2.83-2.49,6.37,6.37,0,0,1-1-2.15,2.63,2.63,0,0,0-1.37-1.75c.2-1.5.43-3,.69-4.4s.52-2.89.78-4.39a48.11,48.11,0,0,0,7-7.42,18.77,18.77,0,0,0,3.47-2.15c1.07-.85,2.15-1.71,3.22-2.59s2.15-1.74,3.22-2.59a23.12,23.12,0,0,1,3.47-2.24,2.87,2.87,0,0,1,.83-1.13l1.12-.88a7.64,7.64,0,0,0,1.08-1,3.08,3.08,0,0,0,.68-1.32,22.67,22.67,0,0,0,6-5.18,16,16,0,0,0,3.32-7,8.72,8.72,0,0,0-3.76-1.81,37.32,37.32,0,0,0-4.35-.63q-1.95-.09-4,0a30.27,30.27,0,0,1-4.25-.1,20,20,0,0,1-4.44.88c-1.53.13-3.05.25-4.54.34a35,35,0,0,0-4.45.59,14,14,0,0,0-4.24,1.61,2.5,2.5,0,0,1-.74-.1,2.86,2.86,0,0,0-.73-.09,12.33,12.33,0,0,0-5.86,1.22l-5.37,2.58a1.54,1.54,0,0,0-.2.59,2.69,2.69,0,0,0,.25,1.12,2.76,2.76,0,0,1,.24,1.13.28.28,0,0,0-.09.19.32.32,0,0,1-.1.2,6.16,6.16,0,0,1-.25.88c-.09.26-.21.55-.34.87a20.73,20.73,0,0,0-1.17,6.16q-.11,2.53,0,5c.06,1.62.06,3.29,0,5a27.59,27.59,0,0,1-1,5.86c.33,1.56.62,3.2.88,4.93s.59,3.43,1,5.13a49.11,49.11,0,0,0,1.41,4.93,22.12,22.12,0,0,0,2.2,4.54.19.19,0,0,0,.1.29.81.81,0,0,0,.39.1h.78q.5,0,.39.39a2.63,2.63,0,0,1,.29.54,1,1,0,0,0,.4.44.82.82,0,0,1,0,.78,8.71,8.71,0,0,1-1,3.61,9.65,9.65,0,0,0-1.08,3.61,8.66,8.66,0,0,1-2.14.3,5.94,5.94,0,0,1-2.93-.93,12.28,12.28,0,0,1-2.35-2c-.71-.78-1.4-1.58-2.05-2.4a12.17,12.17,0,0,0-2.15-2.1q-.68-2.73-1.31-6.05a16.68,16.68,0,0,0-2.1-5.66,5.51,5.51,0,0,0,.39-2.15,13.93,13.93,0,0,0-.35-3.86,11.9,11.9,0,0,1-.24-3.86,9.91,9.91,0,0,1,.24-2.15,15.9,15.9,0,0,0,.35-2.14,9.72,9.72,0,0,0-.35-3.23,9.9,9.9,0,0,1-.34-3.22,8.48,8.48,0,0,1,.34-1.51,4.09,4.09,0,0,1,.74-1.32,3.91,3.91,0,0,1-.3-2.25,24.38,24.38,0,0,1,.39-3.12,22.89,22.89,0,0,0,.4-2.93,12.52,12.52,0,0,0-.1-1.52,10.68,10.68,0,0,0-.3-1.41l-.87-.29a2.29,2.29,0,0,0-1.13.29,3.85,3.85,0,0,0-.93.68,9.1,9.1,0,0,1-.68.64.91.91,0,0,1-.58.24,1.75,1.75,0,0,1-.44-.05,2.58,2.58,0,0,0-.44-.05,1.71,1.71,0,0,0-.74.39,14.85,14.85,0,0,1-1.27.83l-1.41.88a3.78,3.78,0,0,1-1.08.54,3.55,3.55,0,0,1-1.7-.73c-.43-.36-.82-.72-1.18-1.08a10.24,10.24,0,0,0-1.12-1,2,2,0,0,0-1.46-.35,3.38,3.38,0,0,1-.35-1.26,7,7,0,0,1,0-1.37V143a6.24,6.24,0,0,1,1.81-2.1,13.45,13.45,0,0,1,2.39-1.42l2.54-1.17a10.49,10.49,0,0,0,2.34-1.47h.88a5.29,5.29,0,0,0,3.08-.68,16.13,16.13,0,0,0,2.49-1.81l2.39-2.1a9.41,9.41,0,0,1,2.69-1.66,15,15,0,0,0,2.24.83,11.64,11.64,0,0,0,2.45.44,9.58,9.58,0,0,0,2.63-.39A3.92,3.92,0,0,0,690,130a3.61,3.61,0,0,0,.83.24,5,5,0,0,0,.83,0,7,7,0,0,0,2.93-.44,18.65,18.65,0,0,0,2.83-1.32,16.6,16.6,0,0,0,3.86-.24c1.27-.23,2.54-.47,3.81-.73s2.54-.51,3.81-.74a17.68,17.68,0,0,1,3.85-.24,26,26,0,0,0,6.35-.59,23.71,23.71,0,0,1,6.35-.49c1.5.07,3,.19,4.44.35a28.67,28.67,0,0,0,4.45.14c.84.39,1.61.74,2.29,1a5.05,5.05,0,0,0,2.59.24,34.11,34.11,0,0,1,5.66,6.16v1.66a16.47,16.47,0,0,1-.78,4.39,40.62,40.62,0,0,1-1.61,4.25q-.93,2.1-2,4.1t-2.05,4q-6.36,5.78-12.7,11.43t-13.08,10.94a8.46,8.46,0,0,1-.54,1.76,5.43,5.43,0,0,0-.44,1.66,2.42,2.42,0,0,0,.1.78,2.81,2.81,0,0,1,1.22.73,1.44,1.44,0,0,1,.34,1.42h.88c.32,0,.49.13.49.39l1.56.09a46,46,0,0,0,7.42-.19q3.72-.39,7.47-.88t7.47-.93c2.48-.29,4.95-.47,7.43-.54a16.1,16.1,0,0,1,1.85-.48,4.31,4.31,0,0,0,1.76-.78h.29a1.3,1.3,0,0,1,1,.39,1.56,1.56,0,0,0,1,.48,3,3,0,0,0,1-.19,5.75,5.75,0,0,1,1.12-.29,13.33,13.33,0,0,1,2.88-.49c1-.07,2-.16,3-.3,3.77-.32,7.52-.53,11.23-.63a56.54,56.54,0,0,0,11.13-1.42,2.39,2.39,0,0,0,1.37.93c.59.16,1.2.33,1.86.49a17.55,17.55,0,0,1,1.8.54A1.76,1.76,0,0,1,788.51,177.85Z"/></g></g></svg>