<svg xmlns="http://www.w3.org/2000/svg" viewBox="0 0 789.65 271.7"><defs><style>.cls-1,.cls-4{fill:#f2f2f2;}.cls-2,.cls-3{fill:#e38c16;}.cls-3{font-size:75px;}.cls-3,.cls-4{font-family:RockSalt-Regular, Rock Salt;}.cls-4{font-size:100px;}</style></defs><g id="Layer_2" data-name="Layer 2"><g id="Layer_1-2" data-name="Layer 1"><path class="cls-1" d="M100,128.17,18.38,190.28a125,125,0,0,1,198-150.62L110.45,120.23Z"/><path class="cls-1" d="M117.9,129.73,22.72,196.87q-1.83-2.58-3.52-5.27l84.21-62.67,11-8.15h0l104.79-78a121.94,121.94,0,0,1,7.86,10l-97.4,68.71Z"/><path class="cls-1" d="M77.88,173.22,29.69,205.89q-3.12-3.67-6-7.6l99.16-68.12,11.75-8.07,95.11-65.34q3.06,4.7,5.71,9.67l-84.55,57.3h0l-11.62,7.88L92.64,163.22l-14.75,10Z"/><path class="cls-1" d="M250,125A125,125,0,0,1,30.32,206.62l49.22-32.85,16.35-10.91h0l47-31.35,10.73-7.16,83.13-55.47A124.53,124.53,0,0,1,250,125Z"/><path class="cls-2" d="M178.21,138.35a4.25,4.25,0,0,1-.82-2.29c-2.2-1.18-4.44-2.35-6.73-3.49a14.93,14.93,0,0,1-5.59-4.76,98,98,0,0,0-11.47-3.46l-10.73,7.16a17.07,17.07,0,0,1,2.53.36c1.18.26,2.39.55,3.61.89s2.42.72,3.56,1.14a32.15,32.15,0,0,1,3,1.27,6.05,6.05,0,0,1,6.35,1,8.08,8.08,0,0,1,2.16,3.61,3.57,3.57,0,0,1-1.91,3.3,28.1,28.1,0,0,0-3.55,2.16,24.28,24.28,0,0,0-2.92,2.29,5.08,5.08,0,0,1-3.56,1.27h-.76a16.24,16.24,0,0,1-4.63,2.28q-2.47.77-4.89,1.78a8.2,8.2,0,0,0-3.81.57c-1,.47-2.15,1-3.42,1.72a58.15,58.15,0,0,0-8.83,2,30.52,30.52,0,0,1-9,1.34h-1.27a3.83,3.83,0,0,1-1-.13,26,26,0,0,1-5.84,2.41,53.42,53.42,0,0,1-6.54,1.4c-2.09.32-4.18.57-6.27.77h0L79.54,173.77a20.41,20.41,0,0,0,5.68.76,21.75,21.75,0,0,0,11.17-3.05,2.21,2.21,0,0,0,2,1,7.12,7.12,0,0,0,2.67-.51,7.09,7.09,0,0,1,2.67-.51h.76a1.37,1.37,0,0,0,.57.83c.29.21.44.4.44.57a13.82,13.82,0,0,1-.76,4.51q-.76,2.22-1.59,4.57c-.55,1.56-1.07,3.13-1.58,4.69a15.28,15.28,0,0,0-.76,4.76,3.46,3.46,0,0,0,.12,1,14.84,14.84,0,0,0-2.85,4.19,11.17,11.17,0,0,0-1.21,4.82,4.9,4.9,0,0,0,.38,1.91,7.3,7.3,0,0,0-2.92,3.43,27.64,27.64,0,0,0-1.65,4.95q-.63,2.66-1.08,5.33a23,23,0,0,1-1.2,4.57,18.07,18.07,0,0,0,2.28,2.6A14.3,14.3,0,0,1,95,227.09a1.18,1.18,0,0,1,.88-.38,3.86,3.86,0,0,1,1.78.38,5.72,5.72,0,0,0,1.78.51,21.81,21.81,0,0,0,2.67-3.94,9.64,9.64,0,0,0,1.14-4.57,6.9,6.9,0,0,0-.13-1.52,90.75,90.75,0,0,1,4.57-11.18L113,195.48q2.67-5.46,5-11a83.29,83.29,0,0,0,3.87-11.55,5.92,5.92,0,0,0,1.65-2.41,9.11,9.11,0,0,1,1.4-2.54,21.1,21.1,0,0,1,5.27-1.59l5.52-.89c1.86-.3,3.68-.63,5.46-1a19.09,19.09,0,0,0,5.2-2,2.16,2.16,0,0,1,1.08.25,2.16,2.16,0,0,0,1.08.26,1,1,0,0,0,.64-.13l7.74-3.94,6.6-3.3a49.3,49.3,0,0,0,6.28-3.74,30.6,30.6,0,0,0,5.4-4.83,22.67,22.67,0,0,0,3.94-6.41A5.05,5.05,0,0,0,178.21,138.35ZM136.38,122.1h-1.74l-11.75,8.07c1.06.12,2.11.27,3.15.43a82.63,82.63,0,0,0,13,1h.23l11.62-7.88A68.74,68.74,0,0,0,136.38,122.1Zm27.11-57.58a10,10,0,0,0-2.92-1.84,17.25,17.25,0,0,0-3.37-1,19.62,19.62,0,0,0-3.42-.32,25.44,25.44,0,0,0-6.61,1,12.73,12.73,0,0,0-5.84,3.23,2.74,2.74,0,0,0-1.77-.5,4.53,4.53,0,0,0-2.61.82,4.51,4.51,0,0,1-2.6.83,4.1,4.1,0,0,1-1.14-.26,66.11,66.11,0,0,1,1.9-10.75q1.39-5.28,3-10.5t3-10.51A70.92,70.92,0,0,0,143.24,24a5.41,5.41,0,0,1-1.78-2.49,5.16,5.16,0,0,0-1.9-2.48,11.08,11.08,0,0,1-1.34.19,14.92,14.92,0,0,1-1.58.07h-3.18a4.7,4.7,0,0,0-3,1.14,28.72,28.72,0,0,0-.32,3.43c0,1.18-.11,2.34-.19,3.49a25.21,25.21,0,0,1-.51,3.42A13.53,13.53,0,0,1,128.26,34a44.32,44.32,0,0,1-1.46,7.75c-.72,2.54-1.46,5-2.22,7.55s-1.42,5-2,7.55a36.5,36.5,0,0,0-.83,7.75v1.52a8.59,8.59,0,0,0,.13,1.52,2.38,2.38,0,0,0-1.14,1.27,4.82,4.82,0,0,0-.26,1.53,7.27,7.27,0,0,0,.38,2.28,160.59,160.59,0,0,0-19.42,10.67q-9.27,6-18.92,11.55a7.17,7.17,0,0,1-5.84,4.19A4.93,4.93,0,0,1,75.13,102c-.81.68-1.63,1.4-2.48,2.16a18.7,18.7,0,0,0-1,6,17.3,17.3,0,0,0,10.79,16.13,11.61,11.61,0,0,0,1.9.63,8.54,8.54,0,0,0,1.91.38.69.69,0,0,0,.69-.38,4.24,4.24,0,0,0,.32-.82,2.31,2.31,0,0,1,.38-.77.87.87,0,0,1,.89-.19,12.13,12.13,0,0,0,4.06,1.65c1.53.34,3.09.64,4.7.89.92.15,1.84.31,2.74.49l10.43-7.94c-.29,0-.57-.1-.85-.16a4.45,4.45,0,0,1-1.91-.89,3.71,3.71,0,0,1-1.4.25H105a17.35,17.35,0,0,1-4.45-.57,16.85,16.85,0,0,0-4.31-.57h-.39a14.16,14.16,0,0,0-3.11-2.16c-1.14-.59-2.22-1.21-3.23-1.84A9.2,9.2,0,0,1,87,112a6.56,6.56,0,0,1-1.14-3.74c.84-.85,1.71-1.65,2.6-2.41a14.86,14.86,0,0,0,2.35-2.54,35.53,35.53,0,0,1,3.87-2.48c1.31-.71,2.62-1.46,3.93-2.22s2.58-1.56,3.81-2.41a21,21,0,0,0,3.49-3,14.23,14.23,0,0,0,5.46-1.77,20.14,20.14,0,0,0,4.57-3.69A31.35,31.35,0,0,0,122.29,86q3-1.14,6.09-2.47t6.1-2.54A25,25,0,0,1,141,79.44c.43-.25,1-.61,1.72-1.07a3.72,3.72,0,0,1,2-.69,25,25,0,0,1,5.65.63c1.82.42,3.71.79,5.65,1.13a16.77,16.77,0,0,1,3.49-2.64l3.75-2.14a4.87,4.87,0,0,0-.06-.76,3.25,3.25,0,0,1-.07-.63,3.56,3.56,0,0,1,.38-1.7,14.7,14.7,0,0,1,.83-1.32c.29-.42.57-.83.82-1.25a4,4,0,0,0,.51-1.64A8.76,8.76,0,0,0,163.49,64.52Zm-34.34,57.07a4.81,4.81,0,0,1-1.53.25,18.39,18.39,0,0,1-4.12-.44,18.54,18.54,0,0,0-4.13-.44,7.22,7.22,0,0,0-2.92.5,7.57,7.57,0,0,0-2.08-.68h0l-11,8.15a16.78,16.78,0,0,1,3,1.17c1-.17,2.07-.3,3.18-.39s2.2-.12,3.3-.12c1.68,0,3.35,0,5,.14l11.72-8.27A4.77,4.77,0,0,0,129.15,121.59ZM89,163.74a11.07,11.07,0,0,0-3.43-.64,18,18,0,0,0-5.46.89,41.09,41.09,0,0,0-5.2,2,48.84,48.84,0,0,1,.38,6,17.21,17.21,0,0,0,2.56,1.23h0l14.75-10C91.4,163.37,90.2,163.54,89,163.74Z"/><text class="cls-3" transform="translate(390.71 110.4)">Debt</text><text class="cls-4" transform="translate(272 194.84)">Slasher</text></g></g></svg>