<svg xmlns="http://www.w3.org/2000/svg" width="928" height="928.187" viewBox="0 0 928 928.187">
  <g id="Group_29" data-name="Group 29" transform="translate(-4343 2096)">
    <rect id="Rectangle_12" data-name="Rectangle 12" width="928" height="928" transform="translate(4343 -2096)" fill="none"/>
    <g id="_" data-name=" " transform="translate(3739.647 -2192.71)" style="isolation: isolate">
      <g id="Group_28" data-name="Group 28" style="isolation: isolate">
        <path id="Path_6" data-name="Path 6" d="M1183.431,736.429q0-41.32-26.375-68.313-26.367-26.976-87.891-48.7t-95.7-40.3Q859.7,518.085,859.7,398.46q0-81.047,49.313-133.281t133.8-62.015V96.71h78.125V204.164q84.938,12.21,131.343,71.968,46.383,59.766,46.391,155.375H1180.493q0-61.522-27.594-96.937-27.585-35.391-74.937-35.406-46.875,0-73.25,25.406t-26.359,72.812q0,42.516,26.125,68.172,26.109,25.641,88.625,48.61,62.484,22.968,98.14,42.5,35.625,19.547,60.047,44.671a177.563,177.563,0,0,1,37.609,57.859q13.173,32.72,13.188,76.657,0,82.5-50.547,133.765-50.531,51.282-140.859,60.547V1024.9H1033.04V930.163q-96.7-10.734-148.687-69.281-52.008-58.547-52-155.156H951.009q0,61.313,31,94.875t87.656,33.562q55.641,0,84.7-26.734T1183.431,736.429Z" fill="#6e8d3b"/>
      </g>
    </g>
  </g>
</svg>
